<svg width="24" height="24" viewBox="0 0 24 24" fill="none" xmlns="http://www.w3.org/2000/svg" aria-hidden="true">
  <path d="M4 6.5C4 5.67 4.67 5 5.5 5H18.5C19.33 5 20 5.67 20 6.5V17.5C20 18.33 19.33 19 18.5 19H5.5C4.67 19 4 18.33 4 17.5V6.5Z" fill="#F2F2F2"/>
  <path d="M4 7L12 12.5L20 7" stroke="#EA4335" stroke-width="1.5" stroke-linejoin="round"/>
  <path d="M4 7V17.5C4 18.33 4.67 19 5.5 19H18.5C19.33 19 20 18.33 20 17.5V7" stroke="#4285F4" stroke-width="1.5"/>
  <path d="M4 7L12 12.5" stroke="#FBBC04" stroke-width="1.5" stroke-linecap="round"/>
  <path d="M20 7L12 12.5" stroke="#34A853" stroke-width="1.5" stroke-linecap="round"/>
  <path d="M7.5 11.5L4 17.5" stroke="#EA4335" stroke-width="1.5" stroke-linecap="round"/>
  <path d="M16.5 11.5L20 17.5" stroke="#34A853" stroke-width="1.5" stroke-linecap="round"/>
</svg>
